<svg xmlns="http://www.w3.org/2000/svg" width="1000" height="600" viewBox="0 0 1000 600"><rect width="100%" height="100%" fill="#F8FAFC"/><text x="60" y="55" font-family="Segoe UI, Arial, sans-serif" font-size="28" font-weight="700" fill="#0F172A">Average Rows Extracted</text><line x1="90" y1="500" x2="930" y2="500" stroke="#475569" stroke-width="2"/><line x1="100" y1="110" x2="100" y2="500" stroke="#475569" stroke-width="2"/><line x1="100" y1="500.0" x2="930" y2="500.0" stroke="#E2E8F0" stroke-width="1"/><text x="45" y="505.0" font-family="Segoe UI, Arial, sans-serif" font-size="16" fill="#475569">0.0</text><line x1="100" y1="402.5" x2="930" y2="402.5" stroke="#E2E8F0" stroke-width="1"/><text x="45" y="407.5" font-family="Segoe UI, Arial, sans-serif" font-size="16" fill="#475569">3.1</text><line x1="100" y1="305.0" x2="930" y2="305.0" stroke="#E2E8F0" stroke-width="1"/><text x="45" y="310.0" font-family="Segoe UI, Arial, sans-serif" font-size="16" fill="#475569">6.3</text><line x1="100" y1="207.5" x2="930" y2="207.5" stroke="#E2E8F0" stroke-width="1"/><text x="45" y="212.5" font-family="Segoe UI, Arial, sans-serif" font-size="16" fill="#475569">9.4</text><line x1="100" y1="110.0" x2="930" y2="110.0" stroke="#E2E8F0" stroke-width="1"/><text x="45" y="115.0" font-family="Segoe UI, Arial, sans-serif" font-size="16" fill="#475569">12.6</text><rect x="100" y="500.0" width="110" height="0.0" rx="10" fill="#14B8A6"/><text x="155.0" y="488.0" text-anchor="middle" font-family="Segoe UI, Arial, sans-serif" font-size="18" font-weight="700" fill="#0F172A">0.0</text><text x="155.0" y="535" text-anchor="middle" font-family="Segoe UI, Arial, sans-serif" font-size="16" fill="#334155">No AEGIS</text><rect x="265" y="110.0" width="110" height="390.0" rx="10" fill="#14B8A6"/><text x="320.0" y="98.0" text-anchor="middle" font-family="Segoe UI, Arial, sans-serif" font-size="18" font-weight="700" fill="#0F172A">12.6</text><text x="320.0" y="535" text-anchor="middle" font-family="Segoe UI, Arial, sans-serif" font-size="16" fill="#334155">Full AEGIS</text></svg>