<svg xmlns="http://www.w3.org/2000/svg" width="1000" height="520" viewBox="0 0 1000 520"><rect width="100%" height="100%" fill="#F8FAFC"/><text x="60" y="55" font-family="Segoe UI, Arial, sans-serif" font-size="28" font-weight="700" fill="#0F172A">Marketplace Success Rate Heatmap</text><text x="290.0" y="110" text-anchor="middle" font-family="Segoe UI, Arial, sans-serif" font-size="16" font-weight="600" fill="#334155">No AEGIS</text><text x="430.0" y="110" text-anchor="middle" font-family="Segoe UI, Arial, sans-serif" font-size="16" font-weight="600" fill="#334155">+ Retry</text><text x="570.0" y="110" text-anchor="middle" font-family="Segoe UI, Arial, sans-serif" font-size="16" font-weight="600" fill="#334155">+ Verification</text><text x="710.0" y="110" text-anchor="middle" font-family="Segoe UI, Arial, sans-serif" font-size="16" font-weight="600" fill="#334155">+ Security</text><text x="850.0" y="110" text-anchor="middle" font-family="Segoe UI, Arial, sans-serif" font-size="16" font-weight="600" fill="#334155">Full AEGIS</text><text x="200" y="178.0" text-anchor="end" font-family="Segoe UI, Arial, sans-serif" font-size="18" fill="#334155">craigslist</text><rect x="220" y="130" width="136" height="76" rx="10" fill="rgb(240,249,255)" stroke="#E2E8F0"/><text x="288.0" y="176.0" text-anchor="middle" font-family="Segoe UI, Arial, sans-serif" font-size="20" font-weight="700" fill="#0F172A">0%</text><rect x="360" y="130" width="136" height="76" rx="10" fill="rgb(240,249,255)" stroke="#E2E8F0"/><text x="428.0" y="176.0" text-anchor="middle" font-family="Segoe UI, Arial, sans-serif" font-size="20" font-weight="700" fill="#0F172A">0%</text><rect x="500" y="130" width="136" height="76" rx="10" fill="rgb(240,249,255)" stroke="#E2E8F0"/><text x="568.0" y="176.0" text-anchor="middle" font-family="Segoe UI, Arial, sans-serif" font-size="20" font-weight="700" fill="#0F172A">0%</text><rect x="640" y="130" width="136" height="76" rx="10" fill="rgb(240,249,255)" stroke="#E2E8F0"/><text x="708.0" y="176.0" text-anchor="middle" font-family="Segoe UI, Arial, sans-serif" font-size="20" font-weight="700" fill="#0F172A">0%</text><rect x="780" y="130" width="136" height="76" rx="10" fill="rgb(14,165,233)" stroke="#E2E8F0"/><text x="848.0" y="176.0" text-anchor="middle" font-family="Segoe UI, Arial, sans-serif" font-size="20" font-weight="700" fill="#0F172A">100%</text><text x="200" y="258.0" text-anchor="end" font-family="Segoe UI, Arial, sans-serif" font-size="18" fill="#334155">ebay</text><rect x="220" y="210" width="136" height="76" rx="10" fill="rgb(240,249,255)" stroke="#E2E8F0"/><text x="288.0" y="256.0" text-anchor="middle" font-family="Segoe UI, Arial, sans-serif" font-size="20" font-weight="700" fill="#0F172A">0%</text><rect x="360" y="210" width="136" height="76" rx="10" fill="rgb(240,249,255)" stroke="#E2E8F0"/><text x="428.0" y="256.0" text-anchor="middle" font-family="Segoe UI, Arial, sans-serif" font-size="20" font-weight="700" fill="#0F172A">0%</text><rect x="500" y="210" width="136" height="76" rx="10" fill="rgb(240,249,255)" stroke="#E2E8F0"/><text x="568.0" y="256.0" text-anchor="middle" font-family="Segoe UI, Arial, sans-serif" font-size="20" font-weight="700" fill="#0F172A">0%</text><rect x="640" y="210" width="136" height="76" rx="10" fill="rgb(240,249,255)" stroke="#E2E8F0"/><text x="708.0" y="256.0" text-anchor="middle" font-family="Segoe UI, Arial, sans-serif" font-size="20" font-weight="700" fill="#0F172A">0%</text><rect x="780" y="210" width="136" height="76" rx="10" fill="rgb(127,207,244)" stroke="#E2E8F0"/><text x="848.0" y="256.0" text-anchor="middle" font-family="Segoe UI, Arial, sans-serif" font-size="20" font-weight="700" fill="#0F172A">50%</text><text x="200" y="338.0" text-anchor="end" font-family="Segoe UI, Arial, sans-serif" font-size="18" fill="#334155">mercari</text><rect x="220" y="290" width="136" height="76" rx="10" fill="rgb(240,249,255)" stroke="#E2E8F0"/><text x="288.0" y="336.0" text-anchor="middle" font-family="Segoe UI, Arial, sans-serif" font-size="20" font-weight="700" fill="#0F172A">0%</text><rect x="360" y="290" width="136" height="76" rx="10" fill="rgb(240,249,255)" stroke="#E2E8F0"/><text x="428.0" y="336.0" text-anchor="middle" font-family="Segoe UI, Arial, sans-serif" font-size="20" font-weight="700" fill="#0F172A">0%</text><rect x="500" y="290" width="136" height="76" rx="10" fill="rgb(240,249,255)" stroke="#E2E8F0"/><text x="568.0" y="336.0" text-anchor="middle" font-family="Segoe UI, Arial, sans-serif" font-size="20" font-weight="700" fill="#0F172A">0%</text><rect x="640" y="290" width="136" height="76" rx="10" fill="rgb(240,249,255)" stroke="#E2E8F0"/><text x="708.0" y="336.0" text-anchor="middle" font-family="Segoe UI, Arial, sans-serif" font-size="20" font-weight="700" fill="#0F172A">0%</text><rect x="780" y="290" width="136" height="76" rx="10" fill="rgb(240,249,255)" stroke="#E2E8F0"/><text x="848.0" y="336.0" text-anchor="middle" font-family="Segoe UI, Arial, sans-serif" font-size="20" font-weight="700" fill="#0F172A">0%</text><text x="200" y="418.0" text-anchor="end" font-family="Segoe UI, Arial, sans-serif" font-size="18" fill="#334155">reverb</text><rect x="220" y="370" width="136" height="76" rx="10" fill="rgb(240,249,255)" stroke="#E2E8F0"/><text x="288.0" y="416.0" text-anchor="middle" font-family="Segoe UI, Arial, sans-serif" font-size="20" font-weight="700" fill="#0F172A">0%</text><rect x="360" y="370" width="136" height="76" rx="10" fill="rgb(240,249,255)" stroke="#E2E8F0"/><text x="428.0" y="416.0" text-anchor="middle" font-family="Segoe UI, Arial, sans-serif" font-size="20" font-weight="700" fill="#0F172A">0%</text><rect x="500" y="370" width="136" height="76" rx="10" fill="rgb(240,249,255)" stroke="#E2E8F0"/><text x="568.0" y="416.0" text-anchor="middle" font-family="Segoe UI, Arial, sans-serif" font-size="20" font-weight="700" fill="#0F172A">0%</text><rect x="640" y="370" width="136" height="76" rx="10" fill="rgb(240,249,255)" stroke="#E2E8F0"/><text x="708.0" y="416.0" text-anchor="middle" font-family="Segoe UI, Arial, sans-serif" font-size="20" font-weight="700" fill="#0F172A">0%</text><rect x="780" y="370" width="136" height="76" rx="10" fill="rgb(14,165,233)" stroke="#E2E8F0"/><text x="848.0" y="416.0" text-anchor="middle" font-family="Segoe UI, Arial, sans-serif" font-size="20" font-weight="700" fill="#0F172A">100%</text></svg>